<svg width="50" height="50" viewBox="0 0 50 50" fill="none" xmlns="http://www.w3.org/2000/svg">
<path d="M21.4212 16.651C21.4212 18.7121 23.092 20.3832 25.1532 20.3832C27.2143 20.3832 28.8852 18.7121 28.8852 16.651C28.8852 14.5899 27.2143 12.919 25.1532 12.919C23.092 12.919 21.4212 14.5899 21.4212 16.651Z" fill="#CACACA"/>
<path fill-rule="evenodd" clip-rule="evenodd" d="M25 50C38.8071 50 50 38.8071 50 25C50 11.1929 38.8071 0 25 0C11.1929 0 0 11.1929 0 25C0 38.8071 11.1929 50 25 50ZM16.125 16.6509C16.125 11.6649 20.167 7.62274 25.1532 7.62274C30.1394 7.62274 34.1813 11.6649 34.1813 16.6509C34.1813 21.6371 30.1394 25.6795 25.1532 25.6795C20.167 25.6795 16.125 21.6371 16.125 16.6509ZM34.2353 30.3234C34.1207 30.4152 31.9548 32.1269 28.3404 32.8632L33.7961 38.2703C34.7556 39.2282 34.7567 40.7824 33.7988 41.7419C32.841 42.7012 31.287 42.7027 30.3272 41.7446L25.0307 36.5867L20.2199 41.7114C19.7382 42.211 19.0958 42.4623 18.4526 42.4623C17.8392 42.4623 17.2252 42.234 16.7489 41.7747C15.7729 40.8336 15.7446 39.2796 16.6857 38.3036L21.8641 32.8917C18.1485 32.1727 15.8932 30.4165 15.777 30.3234C14.7194 29.4752 14.5495 27.9302 15.3977 26.8725C16.2458 25.8149 17.7906 25.645 18.8485 26.493C18.8708 26.5111 21.2297 28.2832 25.0305 28.2858C28.8314 28.2832 31.1415 26.5111 31.1638 26.493C32.2217 25.645 33.7665 25.8149 34.6146 26.8725C35.4628 27.9302 35.2929 29.4752 34.2353 30.3234Z" fill="#CACACA"/>
</svg>
